<svg width="33" height="24" viewBox="0 0 33 24" fill="none" xmlns="http://www.w3.org/2000/svg">
<rect y="24" width="24" height="1" transform="rotate(-90 0 24)" fill="#F0F2F5"/>
<path d="M18.8757 4.69671C18.5503 4.37128 18.0226 4.37128 17.6972 4.69671C17.3718 5.02215 17.3718 5.54979 17.6972 5.87523L21.822 10L17.6972 14.1248C17.3718 14.4502 17.3718 14.9779 17.6972 15.3033C18.0226 15.6288 18.5503 15.6288 18.8757 15.3033L23.0005 11.1785L27.1253 15.3033C27.4507 15.6288 27.9784 15.6288 28.3038 15.3033C28.6292 14.9779 28.6292 14.4502 28.3038 14.1248L24.179 10L28.3038 5.87523C28.6292 5.54979 28.6292 5.02215 28.3038 4.69671C27.9784 4.37128 27.4507 4.37128 27.1253 4.69671L23.0005 8.8215L18.8757 4.69671Z" fill="black"/>
</svg>
